<?xml version="1.0" encoding="UTF-8" standalone="no"?>
<!DOCTYPE svg PUBLIC "-//W3C//DTD SVG 1.1//EN"
 "http://www.w3.org/Graphics/SVG/1.1/DTD/svg11.dtd">
<!-- Generated by graphviz version 2.44.0 (0)
 -->
<!-- Title: G Pages: 1 -->
<svg width="488pt" height="404pt"
 viewBox="0.00 0.00 487.64 404.00" xmlns="http://www.w3.org/2000/svg" xmlns:xlink="http://www.w3.org/1999/xlink">
<g id="graph0" class="graph" transform="scale(1 1) rotate(0) translate(4 400)">
<title>G</title>
<polygon fill="white" stroke="transparent" points="-4,4 -4,-400 483.64,-400 483.64,4 -4,4"/>
<!-- Base_Generator -->
<g id="node1" class="node">
<title>Base_Generator</title>
<ellipse fill="none" stroke="black" cx="85.14" cy="-90" rx="85.29" ry="18"/>
<text text-anchor="middle" x="85.14" y="-86.3" font-family="Times,serif" font-size="14.00">Base_Generator</text>
</g>
<!-- Random -->
<g id="node2" class="node">
<title>Random</title>
<ellipse fill="none" stroke="black" cx="141.14" cy="-18" rx="48.99" ry="18"/>
<text text-anchor="middle" x="141.14" y="-14.3" font-family="Times,serif" font-size="14.00">Random</text>
</g>
<!-- Base_Generator&#45;&gt;Random -->
<g id="edge1" class="edge">
<title>Base_Generator&#45;&gt;Random</title>
<path fill="none" stroke="black" d="M98.7,-72.05C105.51,-63.54 113.89,-53.07 121.4,-43.68"/>
<polygon fill="black" stroke="black" points="124.2,-45.78 127.71,-35.79 118.73,-41.41 124.2,-45.78"/>
</g>
<!-- Generator -->
<g id="node3" class="node">
<title>Generator</title>
<ellipse fill="none" stroke="black" cx="141.14" cy="-162" rx="57.69" ry="18"/>
<text text-anchor="middle" x="141.14" y="-158.3" font-family="Times,serif" font-size="14.00">Generator</text>
</g>
<!-- Generator&#45;&gt;Base_Generator -->
<g id="edge2" class="edge">
<title>Generator&#45;&gt;Base_Generator</title>
<path fill="none" stroke="black" d="M127.87,-144.41C121.07,-135.91 112.64,-125.37 105.07,-115.91"/>
<polygon fill="black" stroke="black" points="107.69,-113.58 98.71,-107.96 102.22,-117.95 107.69,-113.58"/>
</g>
<!-- Generator&#45;&gt;Random -->
<g id="edge3" class="edge">
<title>Generator&#45;&gt;Random</title>
<path fill="none" stroke="black" d="M157.21,-144.39C165.5,-134.63 174.78,-121.58 179.14,-108 184.04,-92.77 184.04,-87.23 179.14,-72 175.82,-61.65 169.64,-51.61 163.22,-43.1"/>
<polygon fill="black" stroke="black" points="165.81,-40.74 156.82,-35.15 160.36,-45.14 165.81,-40.74"/>
</g>
<!-- Spec_Check -->
<g id="node4" class="node">
<title>Spec_Check</title>
<ellipse fill="none" stroke="black" cx="314.14" cy="-306" rx="65.79" ry="18"/>
<text text-anchor="middle" x="314.14" y="-302.3" font-family="Times,serif" font-size="14.00">Spec_Check</text>
</g>
<!-- Spec_Check&#45;&gt;Generator -->
<g id="edge6" class="edge">
<title>Spec_Check&#45;&gt;Generator</title>
<path fill="none" stroke="black" d="M254.68,-298.29C198.72,-290.6 120.79,-275.89 102.14,-252 86.88,-232.45 102.01,-206.01 117.65,-187.03"/>
<polygon fill="black" stroke="black" points="120.37,-189.24 124.3,-179.4 115.09,-184.64 120.37,-189.24"/>
</g>
<!-- Property -->
<g id="node5" class="node">
<title>Property</title>
<ellipse fill="none" stroke="black" cx="327.14" cy="-162" rx="51.99" ry="18"/>
<text text-anchor="middle" x="327.14" y="-158.3" font-family="Times,serif" font-size="14.00">Property</text>
</g>
<!-- Spec_Check&#45;&gt;Property -->
<g id="edge4" class="edge">
<title>Spec_Check&#45;&gt;Property</title>
<path fill="none" stroke="black" d="M315.71,-287.87C317.93,-263.67 322,-219.21 324.63,-190.39"/>
<polygon fill="black" stroke="black" points="328.14,-190.47 325.57,-180.19 321.17,-189.83 328.14,-190.47"/>
</g>
<!-- Config -->
<g id="node6" class="node">
<title>Config</title>
<ellipse fill="none" stroke="black" cx="395.14" cy="-234" rx="40.09" ry="18"/>
<text text-anchor="middle" x="395.14" y="-230.3" font-family="Times,serif" font-size="14.00">Config</text>
</g>
<!-- Spec_Check&#45;&gt;Config -->
<g id="edge5" class="edge">
<title>Spec_Check&#45;&gt;Config</title>
<path fill="none" stroke="black" d="M333.34,-288.41C344.21,-279.02 357.94,-267.15 369.7,-256.99"/>
<polygon fill="black" stroke="black" points="372.19,-259.46 377.47,-250.27 367.61,-254.16 372.19,-259.46"/>
</g>
<!-- Gen_Construction -->
<g id="node7" class="node">
<title>Gen_Construction</title>
<ellipse fill="none" stroke="black" cx="205.14" cy="-234" rx="93.68" ry="18"/>
<text text-anchor="middle" x="205.14" y="-230.3" font-family="Times,serif" font-size="14.00">Gen_Construction</text>
</g>
<!-- Spec_Check&#45;&gt;Gen_Construction -->
<g id="edge7" class="edge">
<title>Spec_Check&#45;&gt;Gen_Construction</title>
<path fill="none" stroke="black" d="M289.68,-289.29C274.85,-279.77 255.71,-267.47 239.39,-256.99"/>
<polygon fill="black" stroke="black" points="240.96,-253.85 230.66,-251.39 237.18,-259.74 240.96,-253.85"/>
</g>
<!-- Gen_Construction&#45;&gt;Generator -->
<g id="edge8" class="edge">
<title>Gen_Construction&#45;&gt;Generator</title>
<path fill="none" stroke="black" d="M189.65,-216.05C181.79,-207.46 172.1,-196.86 163.45,-187.4"/>
<polygon fill="black" stroke="black" points="165.82,-184.81 156.49,-179.79 160.66,-189.53 165.82,-184.81"/>
</g>
<!-- Gen_Construction&#45;&gt;Property -->
<g id="edge9" class="edge">
<title>Gen_Construction&#45;&gt;Property</title>
<path fill="none" stroke="black" d="M233.44,-216.76C251.1,-206.63 273.96,-193.51 292.68,-182.77"/>
<polygon fill="black" stroke="black" points="294.56,-185.73 301.49,-177.72 291.08,-179.66 294.56,-185.73"/>
</g>
<!-- Output_Style -->
<g id="node8" class="node">
<title>Output_Style</title>
<ellipse fill="none" stroke="black" cx="408.14" cy="-378" rx="71.49" ry="18"/>
<text text-anchor="middle" x="408.14" y="-374.3" font-family="Times,serif" font-size="14.00">Output_Style</text>
</g>
<!-- Output_Style&#45;&gt;Spec_Check -->
<g id="edge11" class="edge">
<title>Output_Style&#45;&gt;Spec_Check</title>
<path fill="none" stroke="black" d="M386.34,-360.76C373.76,-351.4 357.77,-339.49 344.04,-329.26"/>
<polygon fill="black" stroke="black" points="345.94,-326.31 335.83,-323.15 341.76,-331.93 345.94,-326.31"/>
</g>
<!-- Output_Style&#45;&gt;Property -->
<g id="edge10" class="edge">
<title>Output_Style&#45;&gt;Property</title>
<path fill="none" stroke="black" d="M419.66,-360.02C439.16,-328.97 473.79,-261.98 444.14,-216 430.29,-194.52 405.39,-181.65 382.1,-173.98"/>
<polygon fill="black" stroke="black" points="382.85,-170.55 372.26,-171.01 380.82,-177.25 382.85,-170.55"/>
</g>
<!-- Output_Style&#45;&gt;Config -->
<g id="edge12" class="edge">
<title>Output_Style&#45;&gt;Config</title>
<path fill="none" stroke="black" d="M406.57,-359.87C404.36,-335.67 400.29,-291.21 397.65,-262.39"/>
<polygon fill="black" stroke="black" points="401.11,-261.83 396.72,-252.19 394.14,-262.47 401.11,-261.83"/>
</g>
</g>
</svg>
